<?xml version="1.0" encoding="UTF-8" standalone="no"?>
<!-- Created with Inkscape (http://www.inkscape.org/) -->

<svg
   xmlns:dc="http://purl.org/dc/elements/1.1/"
   xmlns:cc="http://creativecommons.org/ns#"
   xmlns:rdf="http://www.w3.org/1999/02/22-rdf-syntax-ns#"
   xmlns:svg="http://www.w3.org/2000/svg"
   xmlns="http://www.w3.org/2000/svg"
   xmlns:sodipodi="http://sodipodi.sourceforge.net/DTD/sodipodi-0.dtd"
   xmlns:inkscape="http://www.inkscape.org/namespaces/inkscape"
   width="386"
   height="54"
   id="svg2"
   version="1.1"
   inkscape:version="0.48.4 r9939"
   sodipodi:docname="Neues Dokument 1"
   preserveAspectRatio="none">
  <defs
     id="defs4" />
  <sodipodi:namedview
     id="base"
     pagecolor="#ffffff"
     bordercolor="#666666"
     borderopacity="1.0"
     inkscape:pageopacity="0.0"
     inkscape:pageshadow="2"
     inkscape:zoom="1.979899"
     inkscape:cx="350.96773"
     inkscape:cy="73.9051"
     inkscape:document-units="px"
     inkscape:current-layer="layer1"
     showgrid="false"
     inkscape:window-width="1920"
     inkscape:window-height="1138"
     inkscape:window-x="1358"
     inkscape:window-y="-8"
     inkscape:window-maximized="1" />
  <metadata
     id="metadata7">
    <rdf:RDF>
      <cc:Work
         rdf:about="">
        <dc:format>image/svg+xml</dc:format>
        <dc:type
           rdf:resource="http://purl.org/dc/dcmitype/StillImage" />
        <dc:title></dc:title>
      </cc:Work>
    </rdf:RDF>
  </metadata>
  <g
     inkscape:label="Ebene 1"
     inkscape:groupmode="layer"
     id="layer1"
     transform="translate(0,-998.36218)">
    <g
       id="g2996"
       transform="translate(-2.4025648e-6,-2e-5)">
      <path
         style="fill:#fee172"
         d="m 0,1025.3622 0,-27.00002 193,0 193,0 0,27.00002 0,27 -193,0 -193,0 0,-27 z"
         id="path3012"
         inkscape:connector-curvature="0" />
      <path
         style="fill:#fede65"
         d="m 0,1026.3818 0,-25.9804 144.75,-0.52 c 79.6125,-0.28601 166.4625,-0.75337 193,-1.03856 l 48.25,-0.51853 0,27.01889 0,27.019 -193,0 -193,0 0,-25.9804 z"
         id="path3010"
         inkscape:connector-curvature="0" />
      <path
         style="fill:#feda55"
         d="m 0,1027.8622 0,-24.5 127.15079,0 c 131.45902,0 131.44019,4e-4 161.64006,-4.02757 4.00996,-0.53485 27.52246,-0.97245 52.25,-0.97245 l 44.95915,0 0,27.00002 0,27 -193,0 -193,0 0,-24.5 z"
         id="path3008"
         inkscape:connector-curvature="0" />
      <path
         style="fill:#fed741"
         d="m 0,1029.8894 0,-22.4728 119.75,-0.2785 119.75,-0.2786 20,-2.7621 c 11,-1.5191 22.475,-3.2946 25.5,-3.9454 3.6467,-0.78464 21.59,-1.30626 53.25,-1.54802 l 47.75,-0.36461 0,27.06143 0,27.0614 -193,0 -193,0 0,-22.4728 z"
         id="path3006"
         inkscape:connector-curvature="0" />
      <path
         style="fill:#fed238"
         d="m 79.262243,1051.6705 c 0.969234,-0.2528 1.550601,-0.8021 1.291927,-1.2207 -0.552335,-0.8937 32.61585,-11.6721 60.44583,-19.6426 50.6631,-14.51 88.31711,-22.5263 131.28016,-27.9486 18.58608,-2.3457 22.61563,-2.4964 66.75,-2.4964 l 46.96984,0 0,26 0,26 -154.25,-0.116 c -84.8375,-0.064 -153.456991,-0.3229 -152.487757,-0.5757 z"
         id="path3004"
         inkscape:connector-curvature="0" />
      <path
         style="fill:#fecd24"
         d="m 81.093561,1050.9965 c 5.785075,-3.0188 53.350269,-17.5016 85.531969,-26.043 41.97472,-11.1407 68.71897,-16.7027 99.16272,-20.6227 13.50385,-1.7389 21.41139,-1.9686 67.75,-1.9686 l 52.46175,0 0,25 0,25 -153.75,-0.01 c -129.87704,-0.01 -153.347294,-0.2163 -151.156439,-1.3595 z"
         id="path3002"
         inkscape:connector-curvature="0" />
      <path
         style="fill:#feca16"
         d="m 96,1046.7008 c 36.8484,-12.1845 99.22114,-28.9377 133,-35.7235 30.09032,-6.0448 28.78899,-5.958 95.25,-6.3564 l 61.75,-0.3702 0,24.0557 0,24.0558 -153.25,-0.1027 -153.25,-0.1027 16.5,-5.456 z"
         id="path3000"
         inkscape:connector-curvature="0" />
      <path
         style="fill:#fec500"
         d="m 84,1051.158 c 1.925,-0.5501 12.05,-3.6429 22.5,-6.873 51.046,-15.7786 106.77948,-29.9777 137.5,-35.0308 10.44832,-1.7186 17.46715,-1.8916 76.75,-1.8918 l 65.25,-2e-4 0,22.5 0,22.5 -152.75,-0.1021 C 129.58063,1052.1908 81.624597,1051.8367 84,1051.158 z"
         id="path2998"
         inkscape:connector-curvature="0" />
    </g>
  </g>
</svg>
